<svg width="107" height="18" viewBox="0 0 107 18" fill="none" xmlns="http://www.w3.org/2000/svg">
<path d="M31.6728 0L33.7723 6.21885H40.5662L35.0698 10.0623L37.1692 16.2812L31.6728 12.4377L26.1764 16.2812L28.2759 10.0623L22.7795 6.21885H29.5734L31.6728 0Z" fill="#FFD600"/>
<path d="M9.65269 0L11.8199 6.21885H18.833L13.1592 10.0623L15.3264 16.2812L9.65269 12.4377L3.97898 16.2812L6.14615 10.0623L0.472436 6.21885H7.48553L9.65269 0Z" fill="#FFD600"/>
<path d="M53.3906 0L55.49 6.21885H62.284L56.7876 10.0623L58.887 16.2812L53.3906 12.4377L47.8942 16.2812L49.9936 10.0623L44.4972 6.21885H51.2912L53.3906 0Z" fill="#FFD600"/>
<path d="M75.1093 0L77.2088 6.21885H84.0027L78.5063 10.0623L80.6058 16.2812L75.1093 12.4377L69.6129 16.2812L71.7124 10.0623L66.216 6.21885H73.0099L75.1093 0Z" fill="#FFD600"/>
<path d="M97.1297 0L99.2969 6.21885H106.31L100.636 10.0623L102.803 16.2812L97.1297 12.4377L91.456 16.2812L93.6232 10.0623L87.9495 6.21885H94.9626L97.1297 0Z" fill="#FFD600"/>
</svg>
