<svg width="25" height="25" viewBox="0 0 25 25" fill="none" xmlns="http://www.w3.org/2000/svg">
<rect width="25" height="25" rx="12.5" fill="#EDF0F2"/>
<path fill-rule="evenodd" clip-rule="evenodd" d="M18.0291 7.32996C17.9008 7.21919 17.7217 7.18851 17.5639 7.25023L7.27258 11.2777C6.97296 11.3942 6.78644 11.6947 6.81504 12.0149C6.84363 12.3351 7.08045 12.5979 7.39598 12.6595L10.0625 13.183V16.1562C10.0614 16.4876 10.2627 16.7861 10.5703 16.9093C10.8775 17.0348 11.2301 16.9596 11.4595 16.7199L12.7453 15.3864L14.7852 17.1719C14.9323 17.3024 15.1221 17.3747 15.3189 17.375C15.4051 17.3749 15.4907 17.3614 15.5728 17.3349C15.8455 17.2483 16.0518 17.0235 16.1146 16.7443L18.1758 7.77734C18.2134 7.61255 18.1569 7.44048 18.0291 7.32996ZM14.9243 9.15809L10.3748 12.4162L7.85605 11.9221L14.9243 9.15809ZM10.875 16.1562V13.7452L12.1339 14.8491L10.875 16.1562ZM15.3199 16.5625L11.1213 12.8809L17.1643 8.54973L15.3199 16.5625Z" fill="#1C1C21"/>
</svg>
