<svg width="25" height="25" viewBox="0 0 25 25" fill="none" xmlns="http://www.w3.org/2000/svg">
<rect width="25" height="25" rx="12.5" fill="#EDF0F2"/>
<path d="M12.9084 10.4219C13.0374 10.4177 13.166 10.4388 13.2862 10.484C13.4063 10.5292 13.5154 10.5974 13.6067 10.6844C13.698 10.7715 13.7696 10.8754 13.817 10.9899C13.8644 11.1044 13.8866 11.227 13.8822 11.35M12.6885 9.61347C12.9606 9.61318 13.23 9.66556 13.4803 9.76742C13.7305 9.86929 13.9565 10.0185 14.1445 10.2061C14.3325 10.3936 14.4785 10.6156 14.5738 10.8586C14.6691 11.1015 14.7117 11.3604 14.699 11.6195M12.4058 8.83501C12.8304 8.8256 13.2523 8.9009 13.6446 9.05607C14.0369 9.21123 14.3908 9.44285 14.6836 9.73605C14.9765 10.0292 15.2018 10.3775 15.3451 10.7586C15.4883 11.1397 15.5465 11.5451 15.5157 11.9488" stroke="#1C1C21" stroke-linecap="round"/>
<path fill-rule="evenodd" clip-rule="evenodd" d="M7.44241 11.7992C7.44241 9.07464 7.97644 7.39797 12.5 7.39797C17.0236 7.39797 17.5576 9.07464 17.5576 11.7992C17.5576 14.5238 17.0236 16.2005 12.5 16.2005L11.6832 16.1705L10.0183 18.0568C9.89267 18.1765 9.76702 18.0867 9.76702 17.967V15.9011C9.57853 15.9011 8.79319 15.5418 8.5733 15.3322C7.8822 14.6436 7.44241 14.1346 7.44241 11.7992ZM6.5 11.7992C6.5 8.02672 8.22775 6.49976 12.5 6.49976C16.7723 6.49976 18.5 8.02672 18.5 11.7992C18.5 15.5717 16.7723 17.0987 12.5 17.0987C12.1859 17.0987 11.9346 17.0987 11.4948 17.0388L10.301 18.3262C10.0812 18.5658 9.42147 18.6556 9.42147 17.937V16.6795C9.23298 16.6795 8.79319 16.4999 8.19633 16.1406C7.59948 15.7514 6.5 14.8232 6.5 11.7992ZM13.5052 13.0567C13.7147 12.7972 13.966 12.7573 14.2592 12.937L15.3901 13.7454C15.5576 13.945 15.4843 14.2244 15.1702 14.5837C14.856 14.943 14.5628 15.0927 14.2906 15.0328C13.1806 14.7933 12.1126 14.1945 11.0864 13.2364C10.0602 12.2783 9.42147 11.2403 9.17016 10.1226C9.17016 9.72335 9.43194 9.38402 9.9555 9.10458C10.2277 8.92494 10.4581 8.97484 10.6466 9.25428L11.4319 10.3022C11.5576 10.5417 11.4843 10.7613 11.212 10.9609C9.98691 11.41 12.8141 14.3142 13.5052 13.0567Z" fill="#1C1C21"/>
</svg>
