<svg width="25" height="25" viewBox="0 0 25 25" fill="none" xmlns="http://www.w3.org/2000/svg">
<rect width="25" height="25" rx="12.5" fill="#EDF0F2"/>
<path fill-rule="evenodd" clip-rule="evenodd" d="M15.4393 12.9715L13.593 12.0484C13.4451 11.9747 13.269 11.9857 13.1315 12.0773L12.2839 12.6426C11.8948 12.4288 11.5746 12.1086 11.3607 11.7196L11.9262 10.8721C12.0177 10.7345 12.0287 10.5585 11.955 10.4105L11.0319 8.56441C10.9538 8.40678 10.7929 8.30722 10.617 8.30768C9.34244 8.30768 8.30917 9.34086 8.30917 10.6154C8.31235 13.4179 10.5837 15.6891 13.3865 15.6922C14.6611 15.6922 15.6943 14.6591 15.6943 13.3846C15.6945 13.2097 15.5957 13.0498 15.4393 12.9715ZM13.3865 14.7692C11.0932 14.7666 9.23486 12.9084 9.23232 10.6154C9.23213 9.95526 9.69798 9.38683 10.3453 9.25729L11.0076 10.5842L10.4439 11.423C10.3584 11.5514 10.3426 11.7139 10.4018 11.8563C10.7321 12.6411 11.3565 13.2655 12.1414 13.5957C12.2842 13.6576 12.4487 13.6433 12.5787 13.5576L13.4217 12.9957L14.7487 13.658C14.6181 14.3061 14.0476 14.7715 13.3865 14.7692ZM12.0018 6C9.8945 5.99954 7.94145 7.1044 6.85647 8.91073C5.7715 10.7171 5.71365 12.9601 6.70406 14.8199L6.0492 16.7844C5.93857 17.1161 6.02489 17.4818 6.27217 17.7291C6.51945 17.9763 6.88523 18.0627 7.21698 17.952L9.18155 17.2972C11.3859 18.4696 14.086 18.1545 15.9612 16.5061C17.8364 14.8577 18.4947 12.2204 17.6143 9.88418C16.7338 7.54794 14.4986 6.00102 12.0018 6ZM12.0018 17.0768C11.1092 17.0775 10.2323 16.8424 9.45964 16.3955C9.34521 16.3292 9.20781 16.3151 9.08231 16.3569L6.92446 17.0768L7.64393 14.9192C7.68588 14.7938 7.67202 14.6564 7.60585 14.5419C6.45513 12.5525 6.78434 10.0384 8.40846 8.41233C10.0326 6.78628 12.5465 6.45392 14.5375 7.60204C16.5284 8.75015 17.4998 11.0924 16.9056 13.3124C16.3115 15.5324 14.3001 17.0765 12.0018 17.0768Z" fill="#1C1C21"/>
</svg>
