<svg width="37" height="36" viewBox="0 0 37 36" fill="none" xmlns="http://www.w3.org/2000/svg">
<g clip-path="url(#clip0_9_58)">
<path d="M31.5868 0H6.38682C3.40448 0 0.986816 2.41766 0.986816 5.4V30.6C0.986816 33.5823 3.40448 36 6.38682 36H31.5868C34.5692 36 36.9868 33.5823 36.9868 30.6V5.4C36.9868 2.41766 34.5692 0 31.5868 0Z" fill="#37AEE2"/>
<path d="M14.979 28.4062C14.2056 28.4062 14.2759 28.125 14.0649 27.4219L11.8149 20.0391L29.0415 9.91406" fill="#C8DAEA"/>
<path d="M14.979 28.4062C15.4712 28.4062 15.7524 28.125 16.104 27.8438L19.2681 24.8203L15.3306 22.4297" fill="#A9C9DD"/>
<path d="M15.3304 22.4296L24.8226 29.3906C25.807 30.0234 26.6507 29.6718 26.932 28.4062L30.7992 10.2656C31.1507 8.71869 30.1664 8.01557 29.1117 8.50775L6.54135 17.2265C5.06479 17.789 5.06479 18.7031 6.2601 19.0546L12.096 20.8828L25.4554 12.3749C26.0882 12.0234 26.6507 12.164 26.2289 12.6562" fill="#F6FBFE"/>
</g>
<defs>
<clipPath id="clip0_9_58">
<rect width="36" height="36" fill="white" transform="translate(0.986816)"/>
</clipPath>
</defs>
</svg>
