<svg width="30" height="26" viewBox="0 0 30 26" fill="none" xmlns="http://www.w3.org/2000/svg">
<path fill-rule="evenodd" clip-rule="evenodd" d="M28.6746 0.284482C28.3562 0.000915796 27.9118 -0.0776433 27.52 0.0803805L1.97489 10.3908C1.23118 10.689 0.768204 11.4584 0.839184 12.2781C0.910164 13.0979 1.49801 13.7705 2.28119 13.9281L8.90004 15.2684V22.88C8.89737 23.7283 9.39695 24.4924 10.1605 24.8079C10.923 25.129 11.7983 24.9367 12.3676 24.323L15.5592 20.9092L20.6226 25.48C20.9879 25.8142 21.4591 25.9991 21.9474 26C22.1614 25.9998 22.374 25.9652 22.5776 25.8973C23.2547 25.6757 23.7667 25.1001 23.9226 24.3854L29.0389 1.42979C29.1322 1.00792 28.9921 0.56741 28.6746 0.284482ZM20.968 4.96452L9.67524 13.3054L3.4232 12.0405L20.968 4.96452ZM10.9168 22.88V16.7075L14.0416 19.5337L10.9168 22.88ZM21.9499 23.92L11.5282 14.4949L26.528 3.40711L21.9499 23.92Z" fill="white"/>
</svg>
