<svg width="25" height="25" xmlns="http://www.w3.org/2000/svg" fill="none">
 <g>
  <title>Layer 1</title>
  <path id="svg_1" d="m0,12.56297c0,-6.79224 5.70776,-12.5 12.5,-12.5l0,0c6.79224,0 12.5,5.70776 12.5,12.5l0,0c0,6.79224 -5.70776,12.5 -12.5,12.5l0,0c-6.79224,0 -12.5,-5.70776 -12.5,-12.5l0,0z" opacity="undefined" fill="#EDF0F2"/>
  <g id="svg_2" fill="none" stroke-linecap="round" stroke-linejoin="round" stroke="#000000">
   <path id="svg_3" class="a" d="m13.89908,16.9543l0,-2.4101c1.61928,0.24682 2.1312,1.52083 3.16231,2.4101l2.62861,0a10.65964,10.6567 0 0 0 -2.86823,-3.80026c0.94397,-1.29943 1.94604,-2.52262 2.43618,-4.37738l-2.38898,0c-0.93671,1.4192 -1.43048,3.08158 -2.96989,4.17774l0,-4.17774l-3.46729,0l0.8278,1.02357l0,3.64782c-1.34335,-0.15608 -2.25102,-2.61336 -3.23493,-4.67138l-2.49427,0c0.90767,2.78032 2.8174,8.88179 8.36869,8.17764l0,-0.00001z" fill="none" stroke-linecap="round" stroke-linejoin="round" stroke="#1c1c21"/>
  </g>
 </g>

</svg>